<svg xmlns="http://www.w3.org/2000/svg" font-family="Helvetica, Arial, sans-serif" viewBox="0 0 1180 176"><defs><marker id="a" markerHeight="7" markerWidth="7" orient="auto-start-reverse" refX="8.5" refY="5" viewBox="0 0 10 10"><path fill="#355070" d="m0 0 10 5-10 5z"/></marker></defs><g fill="none" stroke="#355070" stroke-width="2" marker-end="url(#a)"><path d="M176 80h22"/><path d="M368 80h22"/><path d="M560 80h22"/><path d="M752 80h22"/><path d="M944 80c24 0 24-44 40-44"/><path d="M944 80c24 0 24 44 40 44"/></g><rect width="168" height="56" x="8" y="52" fill="#fff" stroke="#e6e4dd" stroke-width="1.5" rx="10"/><path d="M44.48 66.52h-1.95V76h6.49v-1.62h-4.54zm7.94 0h-1.95V76h6.49v-1.62h-4.54zm7.62 2.1 1.7 7.38h1.95l1.68-7.38V76h1.95v-9.48h-2.94l-1.66 7.54L61 66.52h-2.9V76h1.95zm18.42 2.99c-.13-1.72-1.26-2.75-3.03-2.75-2.1 0-3.31 1.38-3.31 3.77 0 2.32 1.2 3.67 3.29 3.67 1.7 0 2.88-1.05 3.05-2.73h-1.74c-.22.9-.59 1.26-1.31 1.26-.93 0-1.47-.82-1.47-2.2 0-.67.13-1.28.35-1.7q.32-.6 1.13-.6c.74 0 1.1.35 1.3 1.28zm4.36-2.75c-2.15 0-3.46 1.42-3.46 3.72 0 2.32 1.31 3.72 3.47 3.72 2.14 0 3.47-1.4 3.47-3.67 0-2.38-1.29-3.77-3.48-3.77m0 1.47c1.01 0 1.66.9 1.66 2.28 0 1.31-.68 2.22-1.65 2.22-.99 0-1.65-.9-1.65-2.25s.66-2.25 1.65-2.25m9.3 5.67h1.81v-9.48h-1.82v3.37a2.1 2.1 0 0 0-1.94-1.03c-1.67 0-2.95 1.62-2.95 3.73 0 .95.29 1.91.76 2.6a2.7 2.7 0 0 0 2.2 1.1 2.1 2.1 0 0 0 1.93-1zm-1.54-5.62c.92 0 1.53.89 1.53 2.24 0 1.27-.62 2.16-1.53 2.16s-1.54-.9-1.54-2.19c0-1.3.63-2.2 1.54-2.2m6.9-1.4h-1.82V76h1.82zm0-2.46h-1.82v1.63h1.82zm1.74 2.46V76h1.82v-4.21c0-.83.57-1.38 1.47-1.38q1.17 0 1.17 1.26V76h1.82v-4.7c0-1.57-.84-2.44-2.35-2.44-.95 0-1.59.34-2.1 1.13v-1.01Zm12.3 0v1.08c-.5-.82-1.07-1.2-1.8-1.2-.63 0-1.32.32-1.8.82a4.2 4.2 0 0 0-1.07 2.98c0 2.16 1.15 3.64 2.82 3.64.76 0 1.21-.25 1.85-1.01v.94c0 .85-.6 1.43-1.46 1.43q-.98 0-1.2-.81H107c0 .54.2.92.68 1.3q.84.69 2.32.68c2.03 0 3.25-.97 3.25-2.6v-7.25Zm-1.47 1.4c.86 0 1.5.95 1.5 2.25 0 1.28-.62 2.15-1.53 2.15-.79 0-1.35-.87-1.35-2.15 0-1.32.56-2.25 1.38-2.25m8.23 1.17h-3.54v1.76h3.54zm4.45-2.43h-1.02v-1.88h-1.82v1.88h-.9v1.21h.9v4.32q0 1.65 1.78 1.65c.42 0 .72-.04 1.06-.14v-1.28l-.42.04c-.48 0-.6-.14-.6-.77v-3.82h1.02zm4.2-.26c-2.15 0-3.46 1.42-3.46 3.72 0 2.32 1.3 3.72 3.47 3.72 2.14 0 3.47-1.4 3.47-3.67 0-2.38-1.29-3.77-3.49-3.77m0 1.47c1 0 1.66.9 1.66 2.28 0 1.31-.68 2.22-1.65 2.22-.99 0-1.65-.9-1.65-2.25s.66-2.25 1.65-2.25m7.94-1.47c-2.15 0-3.46 1.42-3.46 3.72 0 2.32 1.31 3.72 3.47 3.72 2.15 0 3.47-1.4 3.47-3.67 0-2.38-1.29-3.77-3.48-3.77m.01 1.47c1 0 1.65.9 1.65 2.28 0 1.31-.67 2.22-1.65 2.22-.99 0-1.65-.9-1.65-2.25s.66-2.25 1.65-2.25m6.7-3.8h-1.81V76h1.82z" aria-label="LLM coding-tool" style="font-weight:700;font-size:13px;text-anchor:middle;fill:#1f2024"/><path d="M56.2 88.84c-.01-1.13-.76-1.77-2.09-1.77-1.34 0-2.21.7-2.21 1.76 0 .9.46 1.33 1.83 1.66l.85.21c.64.16.9.39.9.8 0 .54-.54.9-1.35.9-.5 0-.91-.14-1.14-.38-.14-.16-.21-.33-.27-.74h-.96q.05 1.99 2.3 1.97c1.45 0 2.37-.71 2.37-1.82 0-.86-.48-1.33-1.63-1.6l-.88-.22c-.74-.17-1.06-.42-1.06-.82 0-.54.47-.87 1.22-.87q1.1.01 1.15.92zm6.33 1.59c0-.88-.07-1.41-.24-1.84a2.4 2.4 0 0 0-2.33-1.52c-1.6 0-2.64 1.22-2.64 3.13 0 1.9 1 3.05 2.62 3.05 1.32 0 2.23-.75 2.46-2h-.92q-.39 1.15-1.5 1.16-.9-.02-1.4-.75a2 2 0 0 1-.3-1.23zm-4.23-.75c.08-1.07.73-1.76 1.65-1.76.94 0 1.59.72 1.59 1.76zm9.47-.84c0-1.13-.76-1.77-2.09-1.77-1.34 0-2.2.7-2.2 1.76 0 .9.45 1.33 1.82 1.66l.86.21c.63.16.89.39.89.8 0 .54-.54.9-1.35.9q-.77-.01-1.14-.38c-.14-.16-.2-.33-.26-.74h-.97q.05 1.99 2.3 1.97c1.45 0 2.37-.71 2.37-1.82 0-.86-.48-1.33-1.62-1.6l-.88-.22c-.75-.17-1.07-.42-1.07-.82 0-.54.47-.87 1.22-.87q1.11.01 1.15.92zm5.52 0c0-1.13-.75-1.77-2.09-1.77s-2.2.7-2.2 1.76c0 .9.46 1.33 1.82 1.66l.86.21c.64.16.89.39.89.8 0 .54-.54.9-1.34.9-.5 0-.92-.14-1.15-.38-.14-.16-.2-.33-.26-.74h-.97q.05 1.99 2.3 1.97c1.45 0 2.38-.71 2.38-1.82 0-.86-.49-1.33-1.63-1.6l-.88-.22c-.75-.17-1.07-.42-1.07-.82 0-.54.47-.87 1.22-.87q1.11.01 1.16.92zm2.34-1.6h-.92V93h.92zm0-2.26h-.93v1.16h.93zm3.78 2.1c-1.63 0-2.6 1.15-2.6 3.08 0 1.95.97 3.1 2.61 3.1 1.63 0 2.6-1.16 2.6-3.05 0-2-.94-3.14-2.6-3.14m.01.84c1.04 0 1.65.85 1.65 2.28 0 1.36-.64 2.2-1.65 2.2-1.02 0-1.65-.84-1.65-2.24s.63-2.24 1.65-2.24m3.88-.68V93h.93v-3.18c0-1.18.61-1.95 1.56-1.95.73 0 1.19.44 1.19 1.14V93h.91v-4.36c0-.95-.71-1.57-1.82-1.57-.86 0-1.41.33-1.92 1.13v-.96zm10.08-2.26h-.92V93h.92zm3.76 2.1c-1.63 0-2.6 1.15-2.6 3.08 0 1.95.97 3.1 2.61 3.1 1.63 0 2.61-1.16 2.61-3.05 0-2-.95-3.14-2.62-3.14m.01.84c1.04 0 1.65.85 1.65 2.28 0 1.36-.63 2.2-1.65 2.2s-1.65-.84-1.65-2.24.63-2.24 1.65-2.24m7.56-.68v.83c-.46-.7-.97-1-1.7-1-1.4 0-2.36 1.3-2.36 3.15 0 .96.23 1.67.73 2.25q.67.77 1.57.78c.7 0 1.19-.3 1.67-1.03v.3c0 1.54-.43 2.1-1.57 2.1q-1.16.02-1.28-.96h-.93c.09 1.07.93 1.74 2.19 1.74.84 0 1.55-.28 1.92-.74.44-.54.6-1.25.6-2.6v-4.82zm-1.6.68c.96 0 1.51.81 1.51 2.28 0 1.4-.56 2.2-1.52 2.2-.94 0-1.5-.82-1.5-2.24 0-1.4.56-2.24 1.5-2.24m8.04.92c-.02-1.13-.76-1.77-2.1-1.77s-2.2.7-2.2 1.76c0 .9.46 1.33 1.82 1.66l.86.21c.64.16.89.39.89.8 0 .54-.54.9-1.34.9-.5 0-.92-.14-1.15-.38-.14-.16-.2-.33-.26-.74h-.97q.06 1.99 2.3 1.97c1.45 0 2.38-.71 2.38-1.82 0-.86-.49-1.33-1.63-1.6l-.88-.22c-.75-.17-1.07-.42-1.07-.82 0-.54.47-.87 1.22-.87q1.12.01 1.16.92zm6.09.52h-1.14v1.14h1.14zm8.2-2.12v.83c-.46-.7-.96-1-1.69-1-1.4 0-2.36 1.3-2.36 3.15 0 .96.23 1.67.72 2.25q.66.77 1.58.78c.69 0 1.18-.3 1.67-1.03v.3c0 1.54-.43 2.1-1.58 2.1q-1.15.02-1.27-.96h-.94c.1 1.07.94 1.74 2.2 1.74.84 0 1.54-.28 1.92-.74.44-.54.6-1.25.6-2.6v-4.82zm-1.6.68c.97 0 1.52.81 1.52 2.28 0 1.4-.56 2.2-1.52 2.2-.95 0-1.5-.82-1.5-2.24 0-1.4.55-2.24 1.5-2.24m4.93-.68h-.92V93h.92zm0-2.26h-.93v1.16h.93zm3.58 2.26h-.94v-1.59h-.92v1.59h-.78v.74h.78v4.36q.02.9 1.12.91c.24 0 .44-.02.74-.07v-.77a2 2 0 0 1-.44.04c-.4 0-.5-.11-.5-.52v-3.95h.94z" aria-label="session logs · git" style="font-size:11px;text-anchor:middle;fill:#5a5d66"/><rect width="168" height="56" x="200" y="52" fill="#fff" stroke="#e6e4dd" stroke-width="1.5" rx="10"/><path d="M267.6 66.52h-1.94V76h1.95zm1.67 2.46V76h1.82v-4.21c0-.83.57-1.38 1.47-1.38q1.17 0 1.17 1.26V76h1.82v-4.7c0-1.57-.84-2.44-2.35-2.44-.95 0-1.59.34-2.1 1.13v-1.01Zm12.3 0v1.08c-.5-.82-1.07-1.2-1.8-1.2-.63 0-1.32.31-1.8.82a4.2 4.2 0 0 0-1.07 2.98c0 2.16 1.15 3.64 2.82 3.64.76 0 1.21-.25 1.85-1.02v.95c0 .85-.6 1.43-1.46 1.43q-.98 0-1.2-.81h-1.87c.02.54.21.92.7 1.3q.83.68 2.3.68c2.04 0 3.26-.97 3.26-2.6v-7.25Zm-1.47 1.4c.86 0 1.5.95 1.5 2.25 0 1.28-.62 2.15-1.53 2.15-.79 0-1.35-.87-1.35-2.15 0-1.32.56-2.25 1.38-2.25m11.05 2.68.01-.31c0-.7-.1-1.35-.27-1.85a3.1 3.1 0 0 0-3.02-2.04c-2.01 0-3.25 1.46-3.25 3.81 0 2.25 1.23 3.63 3.21 3.63 1.58 0 2.85-.89 3.25-2.28h-1.79c-.22.56-.73.89-1.39.89q-.8-.01-1.2-.61c-.17-.26-.23-.58-.26-1.24zm-4.68-1.2q.17-1.62 1.38-1.6 1.26.01 1.41 1.6zm11.71-.62c-.02-1.48-1.17-2.38-3.05-2.38-1.78 0-2.89.9-2.89 2.34q0 .72.4 1.15c.24.24.46.36 1.14.58l2.17.68c.45.14.6.28.6.57 0 .43-.5.69-1.34.69q-.74 0-1.08-.25c-.2-.14-.28-.28-.35-.66h-1.79q.1 2.33 3.32 2.34 1.46 0 2.24-.63c.52-.41.83-1.06.83-1.75q0-1.36-1.38-1.77l-2.3-.66c-.5-.16-.64-.26-.64-.55 0-.39.42-.65 1.05-.65q1.3 0 1.32.95zm4.57-2.12h-1.02v-1.88h-1.82v1.88h-.9v1.21h.9v4.32q0 1.65 1.78 1.65c.42 0 .72-.04 1.06-.14v-1.28l-.42.04c-.48 0-.6-.14-.6-.77v-3.82h1.02z" aria-label="Ingest" style="font-weight:700;font-size:13px;text-anchor:middle;fill:#1f2024"/><path d="M255.71 87.24h-.94v-1.59h-.92v1.59h-.78v.74h.78v4.36c0 .6.4.91 1.12.91.24 0 .44-.02.74-.07v-.77a2 2 0 0 1-.44.04c-.4 0-.5-.11-.5-.52v-3.95h.94zm4.71 0-1.6 4.48-1.47-4.48h-.98l1.95 5.78-.35.92c-.16.4-.35.56-.74.56a2 2 0 0 1-.48-.07v.83q.26.14.61.14c.3 0 .62-.1.86-.28.29-.2.45-.45.63-.91l2.56-6.97zm1.83 8.16h.92v-3c.49.59 1.02.85 1.77.85 1.5 0 2.47-1.2 2.47-3.03 0-1.94-.95-3.15-2.48-3.15q-1.17 0-1.84 1.04v-.87h-.84zm2.53-7.47c1.01 0 1.67.89 1.67 2.27 0 1.3-.67 2.2-1.67 2.2-.98 0-1.6-.88-1.6-2.24 0-1.35.62-2.23 1.6-2.23m8.63 2.5a5 5 0 0 0-.23-1.84 2.4 2.4 0 0 0-2.33-1.52c-1.6 0-2.64 1.22-2.64 3.13 0 1.9.99 3.05 2.62 3.05 1.32 0 2.23-.74 2.46-2h-.92q-.4 1.15-1.5 1.16-.92-.01-1.4-.75c-.22-.33-.3-.66-.3-1.23zm-4.22-.75c.08-1.07.72-1.76 1.65-1.76s1.58.72 1.58 1.76zm10.14-4.7h-.91v2.98q-.6-.88-1.77-.89c-1.5 0-2.48 1.2-2.48 3.04 0 1.94.95 3.14 2.51 3.14.8 0 1.34-.3 1.84-1V93h.81zm-2.53 2.95c1 0 1.62.87 1.62 2.25 0 1.33-.64 2.21-1.6 2.21-1.02 0-1.7-.89-1.7-2.23s.68-2.23 1.68-2.23m11.9 2.5a5 5 0 0 0-.23-1.84 2.4 2.4 0 0 0-2.33-1.52c-1.6 0-2.64 1.22-2.64 3.13 0 1.9.99 3.05 2.62 3.05 1.32 0 2.23-.75 2.46-2h-.92q-.4 1.15-1.5 1.16-.92-.02-1.4-.75c-.22-.33-.3-.66-.3-1.23zm-4.22-.75c.08-1.07.72-1.76 1.65-1.76s1.58.72 1.58 1.76zm7.67 3.32 2.2-5.76h-1.03l-1.63 4.67-1.54-4.67h-1.03l2.02 5.76zm7.78-2.57a5 5 0 0 0-.23-1.84 2.4 2.4 0 0 0-2.33-1.52c-1.6 0-2.64 1.22-2.64 3.13 0 1.9 1 3.05 2.62 3.05 1.32 0 2.23-.75 2.46-2h-.92q-.39 1.15-1.5 1.16-.92-.02-1.4-.75c-.21-.33-.3-.66-.3-1.23zm-4.22-.75c.08-1.07.73-1.76 1.65-1.76.93 0 1.58.72 1.58 1.76zm5.47-2.44V93h.92v-3.18c0-1.18.62-1.95 1.56-1.95.73 0 1.19.44 1.19 1.14V93h.91v-4.36c0-.95-.71-1.57-1.82-1.57-.86 0-1.41.33-1.92 1.13v-.96zm8.14 0h-.95v-1.59h-.91v1.59h-.78v.74h.78v4.36c0 .6.4.91 1.1.91.25 0 .45-.02.76-.07v-.77a2 2 0 0 1-.44.04c-.4 0-.51-.11-.51-.52v-3.95h.95zm5.08 1.6c-.01-1.13-.76-1.77-2.1-1.77-1.33 0-2.2.7-2.2 1.76 0 .9.46 1.33 1.82 1.66l.86.21c.64.15.9.39.9.8 0 .54-.55.9-1.35.9-.5 0-.91-.14-1.14-.38-.15-.16-.21-.33-.27-.74h-.97q.06 1.98 2.3 1.97c1.46 0 2.38-.71 2.38-1.82 0-.86-.48-1.33-1.63-1.6l-.88-.22c-.75-.17-1.07-.42-1.07-.82 0-.54.48-.87 1.23-.87q1.1.01 1.15.92z" aria-label="typed events" style="font-size:11px;text-anchor:middle;fill:#5a5d66"/><rect width="168" height="56" x="392" y="52" fill="#fff" stroke="#e6e4dd" stroke-width="1.5" rx="10"/><path d="m450.6 74.09.62 1.91h2l-3.27-9.48h-2.16L444.42 76h2l.63-1.91zm-.53-1.63h-2.47l1.23-3.7zm8.37-3.48v1.08c-.51-.82-1.07-1.2-1.81-1.2-.62 0-1.31.32-1.8.82a4.2 4.2 0 0 0-1.06 2.98c0 2.16 1.14 3.64 2.82 3.64.76 0 1.21-.25 1.85-1.01v.94c0 .85-.6 1.43-1.46 1.43q-.97 0-1.2-.81h-1.87c.02.54.21.92.7 1.3q.83.69 2.3.68c2.03 0 3.26-.97 3.26-2.6v-7.25Zm-1.47 1.4c.86 0 1.5.95 1.5 2.25 0 1.28-.62 2.15-1.53 2.15-.8 0-1.35-.87-1.35-2.15 0-1.32.56-2.25 1.38-2.25m9.32-1.4v1.08c-.5-.82-1.07-1.2-1.8-1.2-.63 0-1.32.32-1.8.82a4.2 4.2 0 0 0-1.07 2.98c0 2.16 1.15 3.64 2.82 3.64.76 0 1.21-.25 1.85-1.01v.94c0 .85-.6 1.43-1.46 1.43q-.97 0-1.2-.81h-1.86c0 .54.2.92.68 1.3q.84.69 2.32.68c2.03 0 3.25-.97 3.25-2.6v-7.25Zm-1.47 1.4c.86 0 1.5.95 1.5 2.25 0 1.28-.62 2.15-1.53 2.15-.79 0-1.35-.87-1.35-2.15 0-1.32.56-2.25 1.38-2.25m4.95-1.4V76h1.82v-3.73q0-1.6 1.6-1.6a3 3 0 0 1 .57.05v-1.84c-.1-.02-.14-.02-.22-.02-.83 0-1.54.55-1.95 1.5v-1.38Zm11.1 4.08c.02-.15.02-.22.02-.31 0-.7-.1-1.35-.27-1.85a3.1 3.1 0 0 0-3.02-2.04c-2.02 0-3.25 1.46-3.25 3.81 0 2.25 1.22 3.63 3.21 3.63 1.57 0 2.85-.89 3.25-2.28h-1.8c-.21.56-.72.89-1.38.89q-.8-.01-1.2-.61c-.17-.26-.23-.58-.26-1.24zm-4.67-1.2q.17-1.62 1.37-1.6 1.27.01 1.42 1.6zm10.3-2.88v1.08c-.5-.82-1.06-1.2-1.8-1.2-.63 0-1.32.32-1.8.82a4.2 4.2 0 0 0-1.06 2.98c0 2.16 1.14 3.64 2.82 3.64.75 0 1.2-.25 1.84-1.01v.94c0 .85-.6 1.43-1.45 1.43q-.97 0-1.2-.81h-1.87c.01.54.2.92.69 1.3q.84.69 2.31.68c2.03 0 3.25-.97 3.25-2.6v-7.25Zm-1.46 1.4c.85 0 1.49.95 1.49 2.25 0 1.28-.61 2.15-1.52 2.15-.8 0-1.35-.87-1.35-2.15 0-1.32.56-2.25 1.38-2.25m11 5.4c-.32-.3-.42-.5-.42-.86v-3.9q-.01-2.15-2.88-2.16-2.83 0-3 2.43h1.76c.09-.72.39-.96 1.28-.96q1.05 0 1.06.7-.01.36-.32.55c-.24.13-.24.13-1.14.27l-.73.13q-2.08.34-2.07 2.21c.01 1.87.85 2.1 2.14 2.1q1.16.01 2.13-1c0 .37.04.5.2.71h1.98zm-2.2-2.6c0 1.05-.52 1.65-1.45 1.65-.6 0-.99-.32-.99-.84 0-.55.3-.81 1.04-.97l.63-.11c.48-.1.56-.12.77-.23zm6.48-4.06h-1.01v-1.88h-1.82v1.88h-.9v1.21h.9v4.32q-.01 1.65 1.78 1.65c.42 0 .71-.04 1.05-.14v-1.28l-.41.04c-.48 0-.6-.14-.6-.77v-3.82h1.01zm7.18 3.94.01-.31c0-.7-.1-1.35-.27-1.85a3.1 3.1 0 0 0-3.02-2.04c-2.01 0-3.25 1.46-3.25 3.81 0 2.25 1.22 3.63 3.21 3.63 1.58 0 2.85-.88 3.25-2.28h-1.79c-.22.56-.73.89-1.4.89q-.78-.01-1.19-.61c-.17-.26-.23-.58-.26-1.24zm-4.68-1.2q.17-1.62 1.38-1.6 1.26.01 1.41 1.6z" aria-label="Aggregate" style="font-weight:700;font-size:13px;text-anchor:middle;fill:#1f2024"/><path d="M436.03 95.4h.93v-3a2.1 2.1 0 0 0 1.77.85c1.5 0 2.46-1.2 2.46-3.03 0-1.94-.95-3.15-2.47-3.15q-1.19 0-1.84 1.04v-.87h-.85zm2.53-7.47c1.01 0 1.67.89 1.67 2.26 0 1.31-.67 2.2-1.67 2.2-.98 0-1.6-.87-1.6-2.23s.62-2.23 1.6-2.23m8.64 2.5c0-.88-.07-1.41-.23-1.84a2.4 2.4 0 0 0-2.34-1.52c-1.6 0-2.64 1.22-2.64 3.13 0 1.9 1 3.05 2.62 3.05 1.32 0 2.23-.75 2.47-2h-.93q-.39 1.15-1.5 1.16-.9-.02-1.4-.75a2 2 0 0 1-.3-1.23zm-4.23-.75c.08-1.07.73-1.76 1.65-1.76.94 0 1.59.72 1.59 1.76zm5.46-2.44V93h.92v-3c.01-1.38.59-2 1.85-1.96v-.94l-.35-.03c-.6 0-1.05.35-1.57 1.21v-1.04zm5.49 2.33h-2.62v.79h2.62zm5.98-4.59h-.9v2.98q-.6-.88-1.77-.89c-1.5 0-2.48 1.2-2.48 3.04 0 1.94.95 3.14 2.51 3.14.8 0 1.34-.3 1.84-1V93h.81zm-2.53 2.95c1 0 1.62.87 1.62 2.25 0 1.33-.64 2.21-1.6 2.21-1.02 0-1.69-.89-1.69-2.23s.67-2.23 1.67-2.23m9.04 4.53-.2.02q-.48 0-.49-.45v-3.39q-.02-1.55-2.17-1.57c-.84 0-1.51.24-1.91.67-.26.3-.37.63-.4 1.2h.93q.09-1.03 1.35-1.02 1.27.01 1.29.86v.24c-.01.4-.21.54-.96.64-1.3.16-1.5.2-1.85.35q-1 .42-1 1.54c0 1.04.72 1.7 1.88 1.7.73 0 1.31-.25 1.96-.84.07.59.35.84.95.84.2 0 .32-.02.62-.1zm-1.6-1.28c0 .31-.09.5-.37.75q-.55.52-1.36.52c-.71 0-1.13-.34-1.13-.92 0-.6.4-.92 1.38-1.06a5 5 0 0 0 1.48-.32zm5.8-3.94-1.59 4.48-1.47-4.48h-.98l1.94 5.78-.35.91c-.15.41-.35.57-.73.57a2 2 0 0 1-.49-.07v.82q.27.15.62.15.47 0 .86-.28c.28-.2.45-.45.62-.91l2.57-6.97zm6.65 2.12h-1.14v1.14h1.14zm8.94-.19a2.4 2.4 0 0 0-.38-1.24 2.3 2.3 0 0 0-1.9-.86c-1.56 0-2.56 1.23-2.56 3.15 0 1.86 1 3.03 2.55 3.03 1.38 0 2.25-.82 2.36-2.23h-.93q-.23 1.39-1.4 1.39c-1.02 0-1.62-.83-1.62-2.2 0-1.43.6-2.3 1.6-2.3.76 0 1.25.46 1.36 1.26zm6.28 3.3-.2.01q-.48 0-.49-.45v-3.39q-.02-1.55-2.17-1.57c-.84 0-1.51.24-1.91.67-.26.3-.37.63-.4 1.2h.93q.09-1.03 1.35-1.02 1.28.01 1.29.86v.24c-.01.4-.21.54-.96.64-1.3.16-1.5.2-1.85.35q-1 .42-1.01 1.54c0 1.04.73 1.7 1.9 1.7.72 0 1.3-.25 1.95-.84.07.59.35.84.95.84.2 0 .32-.02.62-.1zm-1.6-1.29c0 .31-.09.5-.37.75q-.55.52-1.36.52c-.71 0-1.13-.34-1.13-.92 0-.6.4-.92 1.38-1.06a5 5 0 0 0 1.48-.32zm7.02-2a2.4 2.4 0 0 0-.39-1.25 2.3 2.3 0 0 0-1.9-.86c-1.55 0-2.55 1.23-2.55 3.15 0 1.86.99 3.03 2.55 3.03 1.37 0 2.24-.82 2.35-2.23h-.92q-.24 1.39-1.41 1.39c-1.01 0-1.62-.83-1.62-2.2 0-1.43.6-2.3 1.6-2.3.77 0 1.25.46 1.36 1.26zm1.08-4.2V93h.92v-3.18c0-1.18.61-1.95 1.56-1.95.3 0 .6.1.81.26q.4.28.38.88V93h.91v-4.36c0-.96-.7-1.57-1.81-1.57-.82 0-1.31.25-1.85.96v-3.05zm11 5.45c0-.88-.07-1.41-.24-1.84a2.4 2.4 0 0 0-2.33-1.52c-1.6 0-2.64 1.22-2.64 3.12s.99 3.06 2.62 3.06c1.32 0 2.23-.75 2.46-2h-.92q-.39 1.15-1.5 1.16-.92-.02-1.4-.75c-.21-.33-.3-.66-.3-1.23zm-4.23-.75c.08-1.07.73-1.76 1.65-1.76.93 0 1.58.72 1.58 1.76zm10.14-4.7h-.91v2.98q-.6-.88-1.77-.89c-1.5 0-2.48 1.2-2.48 3.04 0 1.94.95 3.14 2.51 3.14.8 0 1.34-.3 1.84-1V93h.81zm-2.53 2.95c1 0 1.62.87 1.62 2.25 0 1.33-.64 2.21-1.6 2.21-1.02 0-1.7-.89-1.7-2.23s.68-2.23 1.68-2.23" aria-label="per-day · cached" style="font-size:11px;text-anchor:middle;fill:#5a5d66"/><rect width="168" height="56" x="584" y="52" fill="#fff" stroke="#e6e4dd" stroke-width="1.5" rx="10"/><path d="m648.08 68.62 1.7 7.38h1.96l1.67-7.38V76h1.95v-9.48h-2.93l-1.67 7.54-1.71-7.54h-2.92V76h1.95zm14.84 4.44.01-.31c0-.7-.1-1.35-.27-1.85a3.1 3.1 0 0 0-3.02-2.04c-2.01 0-3.25 1.46-3.25 3.81 0 2.25 1.22 3.63 3.21 3.63 1.57 0 2.85-.89 3.25-2.28h-1.8c-.21.56-.72.89-1.38.89q-.8-.01-1.2-.61c-.17-.26-.23-.58-.26-1.24zm-4.68-1.2q.17-1.62 1.37-1.6 1.27.01 1.42 1.6zm8.95-2.74h-1.01v-1.88h-1.82v1.88h-.9v1.21h.9v4.32q-.01 1.65 1.78 1.65c.42 0 .72-.04 1.05-.14v-1.28l-.41.04c-.48 0-.6-.14-.6-.77v-3.82h1.01zm1.24-.14V76h1.82v-3.73q0-1.6 1.6-1.6c.2 0 .32.01.57.05v-1.84c-.1-.02-.14-.02-.22-.02-.83 0-1.55.55-1.95 1.5v-1.38Zm6.86 0h-1.82V76h1.82zm0-2.46h-1.82v1.63h1.82zm7.71 5.09c-.13-1.72-1.26-2.75-3.03-2.75-2.1 0-3.31 1.38-3.31 3.77 0 2.32 1.2 3.67 3.29 3.67 1.7 0 2.88-1.05 3.05-2.73h-1.74c-.22.9-.58 1.26-1.31 1.26-.93 0-1.47-.82-1.47-2.2 0-.67.13-1.28.35-1.7.2-.39.61-.6 1.13-.6.74 0 1.1.35 1.3 1.28zm7.06-.37c-.02-1.48-1.17-2.38-3.05-2.38-1.78 0-2.89.9-2.89 2.34q0 .72.39 1.15c.25.24.47.36 1.14.58l2.18.68c.45.14.6.28.6.57 0 .43-.5.69-1.35.69q-.72 0-1.07-.25c-.2-.14-.28-.28-.36-.66h-1.78q.1 2.33 3.32 2.34 1.45 0 2.23-.63c.52-.41.84-1.06.84-1.75q0-1.36-1.38-1.77l-2.3-.66c-.51-.16-.64-.26-.64-.55 0-.39.42-.65 1.05-.65q1.3 0 1.32.95z" aria-label="Metrics" style="font-weight:700;font-size:13px;text-anchor:middle;fill:#1f2024"/><path d="M615.6 87.72q-.44-2.51-2.95-2.5-1.56 0-2.43.96a4.5 4.5 0 0 0-1.07 3.08c0 1.26.4 2.34 1.1 3.09q.88.9 2.36.9 2.8 0 3.15-3.04h-1.01a4 4 0 0 1-.35 1.18c-.31.63-.96 1-1.78 1-1.52 0-2.5-1.23-2.5-3.14 0-1.96.92-3.17 2.41-3.17.62 0 1.2.18 1.52.48.28.27.44.58.55 1.16zm4.63-2.5c-2.2 0-3.69 1.62-3.69 4.01 0 2.4 1.49 4.01 3.7 4.01a3.6 3.6 0 0 0 2.37-.8 4.1 4.1 0 0 0 1.33-3.15c0-2.46-1.46-4.07-3.71-4.07m0 .86c1.66 0 2.73 1.25 2.73 3.2 0 1.84-1.1 3.1-2.72 3.1-1.64 0-2.72-1.26-2.72-3.15s1.08-3.15 2.71-3.15m5.02 6.92h2.95c1.93 0 3.12-1.45 3.12-3.83s-1.18-3.82-3.12-3.82h-2.95zm.98-.86V86.2h1.8c1.51 0 2.31 1.01 2.31 2.97 0 1.94-.8 2.96-2.3 2.96zm7.48-6.8h-.97V93h4.75v-.86h-3.78zm9.19 4.18h-1.1v1.1h1.1zm5.17-2.02h-.88V93h.88zm0-2.15h-.89v1.1h.89zm1.49 2.15V93h.88v-3.03c0-1.13.59-1.86 1.49-1.86.7 0 1.13.42 1.13 1.08V93h.88v-4.16c0-.91-.69-1.5-1.75-1.5-.82 0-1.34.32-1.82 1.08v-.92zm7.77 0h-.9v-1.51h-.88v1.5h-.74v.72h.74v4.16q.02.86 1.06.87c.23 0 .42-.02.72-.07v-.74c-.13.03-.24.05-.42.05-.38 0-.49-.11-.49-.5v-3.77h.9zm5.49 3.04c0-.84-.06-1.34-.22-1.75a2.3 2.3 0 0 0-2.23-1.45c-1.53 0-2.52 1.17-2.52 2.98 0 1.82.95 2.92 2.5 2.92 1.26 0 2.13-.71 2.35-1.9h-.88q-.37 1.08-1.44 1.1c-.55 0-1.03-.26-1.32-.72-.21-.32-.28-.63-.3-1.18zm-4.03-.71c.07-1.02.69-1.68 1.57-1.68.9 0 1.51.7 1.51 1.68zm5.2-2.33V93h.89v-2.86c0-1.32.55-1.9 1.76-1.88v-.89l-.34-.03c-.56 0-1 .34-1.5 1.16v-1Zm3.5 0V93h.88v-2.86c.01-1.32.56-1.9 1.77-1.88v-.89l-.34-.03c-.57 0-1 .34-1.5 1.16v-1Zm7.85 5.5v-5.5h-.87v3.12c0 1.12-.58 1.85-1.5 1.85-.7 0-1.13-.41-1.13-1.08v-3.9h-.87v4.25c0 .91.68 1.5 1.75 1.5.8 0 1.32-.28 1.84-1V93Zm1.35 2.29h.88v-2.87c.46.57.98.82 1.7.82 1.42 0 2.34-1.14 2.34-2.9 0-1.84-.9-3-2.36-3q-1.12 0-1.75.99v-.83h-.81zm2.41-7.13c.97 0 1.6.85 1.6 2.16 0 1.25-.64 2.1-1.6 2.1-.93 0-1.53-.84-1.53-2.13 0-1.3.6-2.13 1.53-2.13m5.5-.66h-.9v-1.51h-.88v1.5h-.74v.72h.74v4.16q.02.86 1.06.87c.23 0 .42-.02.72-.07v-.74q-.18.05-.42.05c-.38 0-.49-.11-.49-.5v-3.77h.9zm5.41 2.02h-1.09v1.1h1.1zm8.54-.17a2.3 2.3 0 0 0-.37-1.19 2.2 2.2 0 0 0-1.8-.82c-1.5 0-2.45 1.18-2.45 3 0 1.78.94 2.9 2.44 2.9 1.3 0 2.14-.79 2.24-2.13h-.88q-.23 1.32-1.34 1.32c-.97 0-1.55-.78-1.55-2.09 0-1.37.57-2.2 1.53-2.2.73 0 1.2.44 1.3 1.2zm1.91-4h-.88V93h.88zm3.6 2c-1.56 0-2.49 1.1-2.49 2.94 0 1.86.93 2.95 2.5 2.95 1.55 0 2.48-1.1 2.48-2.9 0-1.92-.9-3-2.5-3m0 .8c.99 0 1.58.8 1.58 2.17 0 1.3-.61 2.11-1.58 2.11s-1.57-.8-1.57-2.14c0-1.33.6-2.14 1.57-2.14m7.57.88c0-1.08-.72-1.69-2-1.69-1.27 0-2.1.66-2.1 1.68 0 .86.44 1.27 1.74 1.59l.82.2c.6.14.85.36.85.75 0 .53-.51.87-1.28.87-.47 0-.87-.13-1.1-.36-.13-.16-.2-.32-.25-.7h-.92q.05 1.88 2.2 1.87c1.38 0 2.26-.68 2.26-1.74 0-.82-.46-1.27-1.55-1.53l-.84-.2c-.71-.17-1.02-.4-1.02-.8 0-.5.45-.82 1.17-.82q1.06 0 1.1.88zm5.71 3.97v-5.5h-.87v3.12c0 1.12-.58 1.85-1.5 1.85-.7 0-1.13-.41-1.13-1.08v-3.9h-.87v4.25c0 .91.68 1.5 1.75 1.5.8 0 1.32-.28 1.84-1V93Zm1.5-5.5V93h.89v-2.86c0-1.32.55-1.9 1.76-1.88v-.89l-.33-.03c-.57 0-1 .34-1.5 1.16v-1Zm8.06 3.04c0-.84-.06-1.34-.22-1.75a2.3 2.3 0 0 0-2.23-1.45c-1.53 0-2.52 1.17-2.52 2.98 0 1.82.95 2.92 2.5 2.92 1.26 0 2.13-.71 2.35-1.9h-.88q-.37 1.08-1.44 1.1c-.55 0-1.03-.26-1.32-.72-.2-.32-.28-.63-.3-1.18zm-4.03-.71c.07-1.02.7-1.68 1.57-1.68.9 0 1.51.7 1.51 1.68z" aria-label="CODL · interrupt · closure" style="font-size:10.5px;text-anchor:middle;fill:#5a5d66"/><rect width="168" height="56" x="776" y="52" fill="#fff" stroke="#6c9a8b" stroke-width="1.8" rx="10"/><path d="M815.42 69.73a3.2 3.2 0 0 0-.64-1.87 4 4 0 0 0-3.32-1.5c-2.67 0-4.34 1.92-4.34 4.99 0 3.05 1.65 4.95 4.3 4.95 2.36 0 3.92-1.37 4.04-3.54h-1.9c-.13 1.21-.89 1.9-2.1 1.9-1.5 0-2.39-1.22-2.39-3.29 0-2.1.93-3.34 2.46-3.34 1.13 0 1.77.55 2.03 1.7zm4.44-.87c-2.14 0-3.46 1.42-3.46 3.72 0 2.32 1.32 3.72 3.48 3.72 2.14 0 3.47-1.4 3.47-3.67 0-2.38-1.29-3.77-3.49-3.77m.02 1.47c1 0 1.65.9 1.65 2.28 0 1.31-.68 2.22-1.65 2.22-1 0-1.66-.9-1.66-2.25s.67-2.25 1.66-2.25m4.8-1.35V76h1.81v-4.21c0-.87.47-1.38 1.25-1.38.61 0 .99.35.99.91V76h1.82v-4.21c0-.86.47-1.38 1.25-1.38.6 0 .98.35.98.91V76h1.82v-4.97c0-1.36-.83-2.17-2.23-2.17-.9 0-1.5.32-2.06 1.04-.33-.66-1.04-1.04-1.9-1.04-.81 0-1.33.26-1.93 1v-.88Zm13.36 0h-1.82v9.85h1.82v-3.66a2.1 2.1 0 0 0 1.95 1.14c1.69 0 2.93-1.58 2.93-3.72 0-.98-.28-1.97-.75-2.62a2.8 2.8 0 0 0-2.18-1.1c-.89 0-1.51.37-1.95 1.15zm1.53 1.4c.92 0 1.53.89 1.53 2.24 0 1.29-.62 2.17-1.53 2.17-.92 0-1.53-.88-1.53-2.2s.6-2.2 1.53-2.2m7.75-1.52c-2.15 0-3.46 1.42-3.46 3.72s1.31 3.72 3.47 3.72c2.15 0 3.47-1.4 3.47-3.67 0-2.38-1.28-3.77-3.48-3.77m.01 1.47c1 0 1.65.9 1.65 2.28 0 1.31-.67 2.22-1.65 2.22-.99 0-1.65-.9-1.65-2.25s.66-2.25 1.65-2.25m10.58.91c-.02-1.48-1.17-2.38-3.05-2.38-1.78 0-2.89.9-2.89 2.34q.01.72.4 1.15c.24.24.46.36 1.14.58l2.17.68c.45.14.6.28.6.57 0 .43-.5.69-1.34.69q-.73 0-1.08-.25c-.2-.14-.28-.28-.35-.66h-1.78q.1 2.33 3.31 2.34 1.47 0 2.24-.63c.52-.41.83-1.06.83-1.75q0-1.37-1.38-1.77l-2.3-.66c-.5-.16-.64-.26-.64-.55 0-.39.42-.65 1.06-.65q1.3 0 1.3.95zm3.36-2.26h-1.82V76h1.82zm0-2.46h-1.82v1.63h1.82zm4.83 2.6h-1.01v-1.88h-1.82v1.88h-.9v1.21h.9v4.32q-.01 1.65 1.78 1.65c.42 0 .72-.04 1.05-.14v-1.28l-.41.04c-.48 0-.6-.14-.6-.77v-3.82h1.01zm7.18 3.94.01-.31c0-.7-.1-1.35-.27-1.85a3.1 3.1 0 0 0-3.02-2.04c-2.01 0-3.25 1.46-3.25 3.81 0 2.25 1.23 3.63 3.21 3.63 1.58 0 2.85-.89 3.25-2.28h-1.79c-.22.56-.73.89-1.39.89q-.8-.01-1.2-.61c-.17-.26-.23-.58-.26-1.24zm-4.68-1.2q.17-1.62 1.38-1.6 1.26.01 1.41 1.6zm12.26-5.27c-.99 0-1.83.41-2.4 1.18-.53.72-.77 1.89-.77 3.68q-.01 2.45.65 3.48a2.9 2.9 0 0 0 2.52 1.37q1.51 0 2.4-1.17c.51-.72.77-1.9.77-3.63 0-1.69-.2-2.83-.65-3.55a2.9 2.9 0 0 0-2.52-1.36m0 1.47q.72.01 1.06.74c.19.39.3 1.39.3 2.66 0 1.04-.1 2.06-.24 2.43q-.33.84-1.12.85-.73 0-1.07-.72a8 8 0 0 1-.28-2.58c0-1.1.09-2.14.23-2.51q.32-.86 1.12-.87m10.92 3.9h-7.36v1.35h7.36zm3.08-2.32V76h1.82v-9.22h-1.2q-.45 1.65-2.83 1.65v1.21zm7.68-3.05c-.99 0-1.83.41-2.39 1.18-.53.72-.78 1.89-.78 3.68q-.01 2.45.65 3.48a2.9 2.9 0 0 0 2.52 1.37q1.51 0 2.4-1.17c.51-.72.77-1.9.77-3.63 0-1.69-.2-2.83-.65-3.55a2.9 2.9 0 0 0-2.52-1.36m0 1.47q.72.01 1.07.74c.18.39.28 1.39.28 2.66 0 1.04-.09 2.06-.23 2.43q-.32.84-1.12.85-.73 0-1.06-.72a8 8 0 0 1-.29-2.58c0-1.1.1-2.14.23-2.51q.32-.85 1.12-.87m7.23-1.47c-.99 0-1.83.41-2.4 1.18-.52.72-.77 1.89-.77 3.68q-.01 2.45.65 3.48a2.9 2.9 0 0 0 2.52 1.37q1.51 0 2.4-1.17c.51-.72.77-1.9.77-3.63 0-1.69-.2-2.83-.65-3.55a2.9 2.9 0 0 0-2.52-1.36m0 1.47q.72.01 1.07.74c.18.39.28 1.39.28 2.66 0 1.04-.09 2.06-.23 2.43q-.33.84-1.12.85-.72 0-1.07-.72a8 8 0 0 1-.28-2.58c0-1.1.09-2.14.23-2.51q.32-.85 1.12-.87" aria-label="Composite 0–100" style="font-weight:700;font-size:13px;text-anchor:middle;fill:#1f2024"/><path d="m823 93 2.21-5.76h-1.03l-1.63 4.67-1.54-4.67h-1.03L822 93zm7.1-4.16c-.01-1.13-.76-1.77-2.1-1.77s-2.2.7-2.2 1.76c0 .9.46 1.33 1.82 1.66l.86.21c.64.16.89.39.89.8 0 .54-.54.9-1.34.9q-.77-.01-1.15-.38c-.14-.16-.2-.33-.26-.74h-.97q.06 1.99 2.3 1.97c1.45 0 2.38-.71 2.38-1.82 0-.86-.49-1.33-1.63-1.6l-.88-.22c-.75-.17-1.07-.42-1.07-.82 0-.54.48-.87 1.22-.87q1.12.01 1.16.92zm8-1.6-1.59 4.48-1.47-4.48h-.98l1.94 5.78-.35.92c-.15.4-.35.56-.74.56a2 2 0 0 1-.48-.07v.83q.27.14.62.14.47 0 .85-.28c.29-.2.46-.45.63-.91l2.56-6.97zm3.99-.17c-1.63 0-2.6 1.16-2.6 3.1s.97 3.08 2.6 3.08 2.61-1.15 2.61-3.04c0-2-.94-3.14-2.61-3.14m0 .85c1.04 0 1.66.84 1.66 2.27 0 1.37-.64 2.22-1.65 2.22-1.03 0-1.65-.85-1.65-2.25s.62-2.24 1.65-2.24m8.42 5.08v-5.76h-.91v3.26c0 1.18-.62 1.95-1.57 1.95-.73 0-1.2-.44-1.2-1.13v-4.08h-.9v4.44c0 .96.71 1.57 1.83 1.57.85 0 1.39-.3 1.93-1.05v.8Zm1.58-5.76V93h.92v-3c.01-1.38.58-2 1.85-1.96v-.94l-.35-.03c-.6 0-1.05.35-1.58 1.21v-1.04zm8.95-.17c-1.63 0-2.6 1.16-2.6 3.1s.97 3.08 2.61 3.08c1.63 0 2.6-1.15 2.6-3.04 0-2-.94-3.14-2.61-3.14m.01.85c1.03 0 1.65.84 1.65 2.27 0 1.37-.64 2.22-1.65 2.22-1.02 0-1.65-.85-1.65-2.25s.63-2.24 1.65-2.24m3.7 7.48h.93v-3c.49.59 1.02.85 1.77.85 1.5 0 2.47-1.2 2.47-3.03 0-1.94-.95-3.15-2.48-3.15q-1.17 0-1.84 1.04v-.87h-.84zm2.54-7.47c1 0 1.67.89 1.67 2.26 0 1.31-.67 2.2-1.67 2.2-.98 0-1.6-.87-1.6-2.23s.62-2.23 1.6-2.23m5.75-.7h-.95v-1.58h-.9v1.59h-.79v.74h.78v4.36c0 .6.4.91 1.11.91.24 0 .44-.02.75-.07v-.77a2 2 0 0 1-.44.04c-.4 0-.5-.11-.5-.52v-3.95h.94zm1.86 0H874V93h.9zm0-2.25h-.92v1.16h.92zm1.56 2.26V93h.93v-3.62c0-.83.6-1.5 1.35-1.5.68 0 1.07.41 1.07 1.15V93h.92v-3.62c0-.83.6-1.5 1.35-1.5.67 0 1.07.42 1.07 1.15V93h.92v-4.32c0-1.04-.6-1.6-1.67-1.6-.77 0-1.23.22-1.77.87-.34-.62-.8-.88-1.55-.88-.77 0-1.29.29-1.77.98v-.81Zm13.7 5.76v-5.76h-.92v3.26c0 1.18-.61 1.95-1.57 1.95-.73 0-1.19-.44-1.19-1.13v-4.08h-.91v4.44c0 .96.71 1.57 1.84 1.57.84 0 1.38-.3 1.92-1.05v.8Zm1.58-5.76V93h.92v-3.62c0-.83.61-1.5 1.36-1.5.68 0 1.06.41 1.06 1.15V93h.93v-3.62c0-.83.6-1.5 1.35-1.5.67 0 1.07.42 1.07 1.15V93h.92v-4.32c0-1.04-.6-1.6-1.67-1.6-.77 0-1.23.22-1.77.87-.34-.62-.8-.88-1.55-.88-.77 0-1.29.29-1.77.98v-.81z" aria-label="vs your optimum" style="font-size:11px;text-anchor:middle;fill:#5a5d66"/><rect width="158" height="56" x="984" y="8" fill="#fff" stroke="#355070" stroke-width="1.6" rx="10"/><path d="M1030.82 36.7V41h1.95v-9.48h-1.96v3.55h-3.75v-3.55h-1.95V41h1.95v-4.3zm7.77-3.55h2.77v-1.63h-7.59v1.63h2.87V41h1.95zm5.72.47 1.7 7.38h1.96l1.67-7.38V41h1.95v-9.48h-2.94l-1.66 7.54-1.72-7.54h-2.9V41h1.94zm11.01-2.1h-1.95V41h6.5v-1.62h-4.55zm9.39 2.46V41h1.82v-3.73q0-1.6 1.6-1.6c.2 0 .32.01.57.05v-1.84c-.1-.02-.14-.02-.22-.02-.83 0-1.55.55-1.95 1.5v-1.38Zm11.1 4.08.01-.31c0-.7-.1-1.35-.27-1.85a3.1 3.1 0 0 0-3.01-2.04c-2.02 0-3.25 1.46-3.25 3.81 0 2.25 1.22 3.63 3.2 3.63 1.58 0 2.85-.88 3.26-2.28h-1.8c-.22.56-.73.89-1.39.89q-.79-.01-1.2-.61c-.16-.26-.23-.57-.25-1.24zm-4.68-1.2q.17-1.62 1.38-1.6 1.26.01 1.42 1.6zm7.67-2.88h-1.82v9.85h1.82v-3.66a2.1 2.1 0 0 0 1.95 1.14c1.7 0 2.94-1.58 2.94-3.72 0-.98-.29-1.97-.75-2.62a2.8 2.8 0 0 0-2.19-1.1c-.88 0-1.5.37-1.95 1.15zm1.54 1.4c.92 0 1.53.89 1.53 2.24 0 1.29-.62 2.17-1.53 2.17-.93 0-1.54-.88-1.54-2.2s.61-2.2 1.54-2.2m7.74-1.52c-2.14 0-3.45 1.42-3.45 3.72 0 2.32 1.3 3.72 3.47 3.72 2.14 0 3.47-1.4 3.47-3.67 0-2.38-1.29-3.77-3.49-3.77m.02 1.47c1 0 1.65.9 1.65 2.28 0 1.31-.68 2.22-1.65 2.22-1 0-1.65-.9-1.65-2.25s.66-2.25 1.65-2.25m4.83-1.35V41h1.82v-3.73q0-1.6 1.6-1.6a3 3 0 0 1 .57.05v-1.84c-.1-.02-.14-.02-.22-.02-.83 0-1.54.55-1.95 1.5v-1.38Zm8.43.14h-1.02v-1.88h-1.82v1.88h-.9v1.21h.9v4.32q0 1.65 1.78 1.65c.42 0 .72-.04 1.06-.14v-1.28l-.42.04c-.48 0-.6-.14-.6-.77v-3.82h1.02z" aria-label="HTML report" style="font-weight:700;font-size:13px;text-anchor:middle;fill:#355070"/><rect width="158" height="56" x="984" y="96" fill="#fff" stroke="#355070" stroke-width="1.6" rx="10"/><path d="M1030.83 119.52h-1.95V129h6.49v-1.62h-4.54zm7.5 2.46h-1.82V129h1.82zm0-2.46h-1.82v1.63h1.82zm5.41 9.48 2.42-7.02h-1.93l-1.41 5.14-1.52-5.14h-1.93l2.46 7.02zm9.27-2.94.01-.31c0-.7-.1-1.35-.27-1.85a3.1 3.1 0 0 0-3.02-2.04c-2.01 0-3.25 1.46-3.25 3.81 0 2.25 1.23 3.63 3.21 3.63 1.58 0 2.85-.89 3.25-2.28h-1.79c-.22.56-.73.89-1.4.89q-.78-.01-1.19-.61c-.17-.26-.23-.58-.26-1.24zm-4.68-1.2q.17-1.62 1.38-1.6 1.26.01 1.41 1.6zM1065 129l1.99-7.02h-1.89l-1.06 4.91-1.06-4.91h-1.82l-1.06 4.91-1.12-4.91h-1.89l1.98 7.02h1.87l1.12-4.95 1.05 4.95zm4.82-7.02H1068V129h1.82zm0-2.46H1068v1.63h1.82zm6.19 9.48h1.82v-9.48h-1.82v3.37a2.1 2.1 0 0 0-1.94-1.03c-1.67 0-2.95 1.62-2.95 3.73 0 .95.29 1.91.76 2.6a2.7 2.7 0 0 0 2.2 1.1 2.1 2.1 0 0 0 1.93-1zm-1.53-5.62c.92 0 1.53.89 1.53 2.24 0 1.27-.62 2.16-1.53 2.16s-1.54-.9-1.54-2.19c0-1.3.63-2.2 1.54-2.2m9.4-1.4v1.08c-.51-.82-1.07-1.2-1.81-1.2-.63 0-1.32.32-1.8.82a4.2 4.2 0 0 0-1.06 2.98c0 2.16 1.14 3.64 2.82 3.64.75 0 1.2-.25 1.84-1.02v.95c0 .85-.6 1.43-1.45 1.43q-.98 0-1.2-.81h-1.87c.01.54.2.92.69 1.3q.84.69 2.31.68c2.03 0 3.25-.97 3.25-2.6v-7.25zm-1.47 1.4c.85 0 1.49.95 1.49 2.25 0 1.28-.61 2.15-1.52 2.15-.8 0-1.35-.87-1.35-2.15 0-1.32.56-2.25 1.38-2.25m11.05 2.68v-.31c0-.7-.1-1.35-.26-1.85a3.1 3.1 0 0 0-3.02-2.04c-2.02 0-3.25 1.46-3.25 3.81 0 2.25 1.22 3.63 3.21 3.63 1.57 0 2.85-.89 3.25-2.28h-1.8c-.21.56-.72.89-1.38.89q-.8-.01-1.2-.61c-.17-.26-.23-.58-.26-1.24zm-4.68-1.2q.17-1.62 1.37-1.6 1.27.01 1.42 1.6zm8.95-2.74h-1.01v-1.88h-1.82v1.88h-.9v1.21h.9v4.32q-.01 1.65 1.78 1.65c.42 0 .71-.04 1.05-.14v-1.28l-.41.04c-.48 0-.6-.14-.6-.77v-3.82h1.01z" aria-label="Live widget" style="font-weight:700;font-size:13px;text-anchor:middle;fill:#355070"/><path d="M9.95 166.7h2.52c.87 0 1.26.42 1.26 1.37v.68c0 .47.08.94.21 1.25h1.19v-.24c-.37-.25-.44-.53-.46-1.54-.01-1.26-.21-1.64-1.04-2 .86-.43 1.2-.94 1.2-1.83 0-1.32-.81-2.04-2.33-2.04H8.98V170h.97Zm0-.86v-2.63h2.37c.54 0 .86.08 1.1.29q.4.34.4 1.02c0 .91-.47 1.32-1.5 1.32zm10.6 4.16v-5.5h-.87v3.12c0 1.12-.6 1.85-1.5 1.85-.7 0-1.14-.42-1.14-1.08v-3.9h-.87v4.25c0 .91.68 1.5 1.75 1.5.81 0 1.33-.28 1.84-1v.76Zm1.5-5.5v5.5h.9v-3.03c0-1.13.58-1.86 1.48-1.86.7 0 1.14.42 1.14 1.08V170h.87v-4.16c0-.91-.68-1.5-1.75-1.5-.81 0-1.34.32-1.82 1.08v-.92zm9.71 1.53c0-1.08-.72-1.69-2-1.69-1.27 0-2.1.66-2.1 1.68 0 .86.44 1.27 1.74 1.59l.82.2c.6.14.85.36.85.75 0 .53-.52.87-1.28.87q-.74 0-1.1-.36c-.13-.16-.2-.32-.25-.7h-.92q.05 1.88 2.2 1.87c1.38 0 2.26-.68 2.26-1.74 0-.82-.46-1.27-1.55-1.53l-.84-.2c-.72-.17-1.02-.4-1.02-.8 0-.5.45-.82 1.16-.82q1.07 0 1.1.88zm8.96 1.51a5 5 0 0 0-.22-1.75 2.3 2.3 0 0 0-2.23-1.45c-1.53 0-2.52 1.17-2.52 2.98 0 1.82.95 2.92 2.5 2.92 1.26 0 2.13-.71 2.35-1.91h-.88q-.37 1.09-1.44 1.1c-.55 0-1.03-.25-1.32-.71-.21-.32-.28-.63-.3-1.18zm-4.03-.71c.07-1.02.69-1.68 1.57-1.68.9 0 1.51.7 1.51 1.68zm5.21-2.33v5.5h.89v-3.03c0-1.13.58-1.86 1.49-1.86.69 0 1.13.42 1.13 1.08V170h.87v-4.16c0-.91-.68-1.5-1.74-1.5-.82 0-1.34.32-1.83 1.08v-.92zm7.77 0h-.9v-1.51h-.87v1.5h-.75v.72h.75v4.16q.02.86 1.06.87c.23 0 .42-.02.71-.07v-.74q-.17.04-.42.04c-.37 0-.48-.1-.48-.49v-3.77h.9zm1.78 0h-.87v5.5h.87zm0-2.15h-.88v1.1h.88zm1.48 2.15v5.5h.88v-2.86c.01-1.32.56-1.9 1.77-1.88v-.89l-.34-.03c-.57 0-1 .34-1.5 1.16v-1zm8.05 3.04c0-.84-.06-1.34-.22-1.75a2.3 2.3 0 0 0-2.22-1.45c-1.54 0-2.52 1.17-2.52 2.98 0 1.82.94 2.92 2.5 2.92 1.26 0 2.13-.71 2.35-1.91h-.88q-.38 1.09-1.44 1.1-.86-.01-1.33-.71c-.2-.32-.28-.63-.29-1.18zm-4.03-.71c.07-1.02.7-1.68 1.58-1.68s1.5.7 1.5 1.68zm6.04-4.48h-.88V170h.88zm4.76 2.15-1.53 4.28-1.4-4.28h-.94l1.86 5.52-.34.87c-.14.4-.33.54-.7.54-.15 0-.27-.02-.46-.07v.8q.26.13.59.13.44-.01.82-.26c.27-.2.43-.43.6-.87l2.44-6.66zm6.95-.16c-1.56 0-2.48 1.1-2.48 2.95 0 1.86.92 2.95 2.49 2.95 1.55 0 2.49-1.1 2.49-2.9 0-1.92-.9-3-2.5-3m0 .8c1 0 1.58.82 1.58 2.18 0 1.3-.6 2.11-1.57 2.11s-1.58-.8-1.58-2.14c0-1.33.6-2.14 1.58-2.14m3.71-.64v5.5h.88v-3.03c0-1.13.6-1.86 1.5-1.86.69 0 1.13.42 1.13 1.08v3.8h.87v-4.16c0-.91-.68-1.5-1.74-1.5-.82 0-1.35.32-1.83 1.08v-.92zm12.1 0L89 168.79l-1.41-4.28h-.94l1.86 5.52-.33.87c-.15.4-.34.54-.7.54-.15 0-.28-.02-.47-.07v.8q.26.13.59.13c.28 0 .59-.1.82-.26.27-.2.43-.43.6-.87l2.44-6.66zm3.8-.16c-1.55 0-2.48 1.1-2.48 2.95 0 1.86.93 2.95 2.5 2.95 1.54 0 2.48-1.1 2.48-2.9 0-1.92-.9-3-2.5-3m.01.8c.99 0 1.58.82 1.58 2.18 0 1.3-.61 2.11-1.58 2.11s-1.57-.8-1.57-2.14c0-1.33.6-2.14 1.57-2.14m8.03 4.86v-5.5h-.87v3.12c0 1.12-.59 1.85-1.5 1.85-.7 0-1.13-.42-1.13-1.08v-3.9h-.88v4.25c0 .91.69 1.5 1.76 1.5.8 0 1.32-.28 1.84-1v.76Zm1.5-5.5v5.5h.89v-2.86c0-1.32.55-1.9 1.76-1.88v-.89l-.34-.03c-.56 0-1 .34-1.5 1.16v-1zm6.43 0v5.5h.88v-3.45c0-.8.58-1.44 1.3-1.44.64 0 1.01.4 1.01 1.1V170h.88v-3.45c0-.8.58-1.44 1.3-1.44.64 0 1.01.4 1.01 1.1V170h.89v-4.13c0-.98-.57-1.53-1.6-1.53-.73 0-1.18.22-1.69.84-.33-.59-.77-.84-1.48-.84-.74 0-1.23.27-1.7.94v-.78zm13.63 4.99-.19.02q-.46-.01-.47-.43v-3.24c0-.97-.72-1.5-2.07-1.5-.8 0-1.45.23-1.83.64-.25.28-.35.6-.38 1.15h.89c.07-.68.47-.98 1.29-.98.8 0 1.23.3 1.23.82v.23c-.01.38-.2.51-.92.6-1.24.17-1.42.2-1.76.34q-.97.41-.97 1.47c0 1 .7 1.63 1.8 1.63.7 0 1.26-.24 1.88-.8.06.56.33.8.9.8a2 2 0 0 0 .6-.1zm-1.53-1.22c0 .3-.09.47-.35.71q-.54.5-1.3.5c-.68 0-1.08-.33-1.08-.89s.37-.87 1.32-1a4 4 0 0 0 1.4-.3zm6.7-1.92a2.3 2.3 0 0 0-.37-1.19 2.2 2.2 0 0 0-1.8-.82c-1.5 0-2.45 1.18-2.45 3 0 1.78.94 2.9 2.43 2.9 1.31 0 2.14-.79 2.25-2.13h-.88q-.23 1.32-1.35 1.32c-.96 0-1.54-.78-1.54-2.09 0-1.37.57-2.2 1.52-2.2.74 0 1.2.44 1.3 1.2zm1.03-4V170h.88v-3.03c0-1.13.58-1.86 1.49-1.86q.45 0 .77.24.38.27.36.84V170h.87v-4.16c0-.92-.66-1.5-1.73-1.5-.78 0-1.25.24-1.76.91v-2.9zm6.68 2.15h-.87v5.5h.87zm0-2.15h-.88v1.1h.88zm1.5 2.15v5.5h.88v-3.03c0-1.13.58-1.86 1.49-1.86.69 0 1.13.42 1.13 1.08V170h.87v-4.16c0-.91-.68-1.5-1.74-1.5-.82 0-1.34.32-1.83 1.08v-.92zm10.48 3.04c0-.84-.06-1.34-.22-1.75a2.3 2.3 0 0 0-2.22-1.45c-1.54 0-2.52 1.17-2.52 2.98 0 1.82.94 2.92 2.5 2.92 1.26 0 2.13-.71 2.35-1.91h-.88q-.38 1.09-1.44 1.1-.86-.01-1.33-.71c-.2-.32-.28-.63-.29-1.18zm-4.03-.71c.07-1.02.7-1.68 1.58-1.68s1.5.7 1.5 1.68zm17.91-.1h-10.6v.75h10.6zm3.65-2.23v5.5h.88v-3.03c0-1.13.59-1.86 1.5-1.86.68 0 1.12.42 1.12 1.08V170h.88v-4.16c0-.91-.69-1.5-1.75-1.5-.82 0-1.34.32-1.82 1.08v-.92zm7.96-.16c-1.56 0-2.48 1.1-2.48 2.95 0 1.86.92 2.95 2.49 2.95 1.55 0 2.49-1.1 2.49-2.9 0-1.92-.9-3-2.5-3m0 .8c1 0 1.58.82 1.58 2.18 0 1.3-.6 2.11-1.57 2.11s-1.58-.8-1.58-2.14c0-1.33.6-2.14 1.58-2.14m6.63-.64v5.5h.88V167c0-1.13.6-1.86 1.5-1.86.69 0 1.13.42 1.13 1.08V170h.87v-4.16c0-.91-.68-1.5-1.74-1.5-.82 0-1.35.32-1.83 1.08v-.92zm10.5 3.04c0-.84-.07-1.34-.23-1.75a2.3 2.3 0 0 0-2.22-1.45c-1.54 0-2.52 1.17-2.52 2.98 0 1.82.94 2.92 2.5 2.92 1.25 0 2.13-.71 2.35-1.91h-.89q-.37 1.09-1.43 1.1-.86-.01-1.33-.71c-.2-.32-.28-.63-.3-1.18zm-4.04-.71c.07-1.02.7-1.68 1.58-1.68s1.5.7 1.5 1.68zm7.06-2.33h-.9v-1.51h-.88v1.5h-.74v.72h.74v4.16c0 .57.38.87 1.06.87.23 0 .42-.02.72-.07v-.74q-.18.04-.42.04c-.38 0-.49-.1-.49-.49v-3.77h.9zm6.33 5.5 1.61-5.5h-.98l-1.1 4.28-1.08-4.28h-1.07l-1.05 4.28-1.12-4.28H195l1.6 5.5h.99l1.06-4.32 1.11 4.32zm4.5-5.66c-1.55 0-2.48 1.1-2.48 2.95 0 1.86.93 2.95 2.5 2.95 1.55 0 2.48-1.1 2.48-2.9 0-1.92-.9-3-2.5-3m.01.8c.99 0 1.58.82 1.58 2.18 0 1.3-.61 2.11-1.58 2.11s-1.57-.8-1.57-2.14c0-1.33.6-2.14 1.57-2.14m3.7-.64v5.5h.88v-2.86c.01-1.32.56-1.9 1.76-1.88v-.89l-.33-.03c-.57 0-1 .34-1.5 1.16v-1zm4.3-2.15h-.87V170h.87v-2.14l.85-.84 1.86 2.98h1.08l-2.24-3.6 1.9-1.9h-1.12l-2.33 2.33zm4.63 6.56V170h.63v.19c0 .72-.13.93-.63.95v.4c.7.02 1.1-.48 1.1-1.37v-1.26zm5.66-4.41v5.5h.89v-3.03c0-1.13.58-1.86 1.49-1.86.69 0 1.13.42 1.13 1.08V170h.87v-4.16c0-.91-.68-1.5-1.74-1.5-.82 0-1.34.32-1.83 1.08v-.92zm7.96-.16c-1.55 0-2.48 1.1-2.48 2.95 0 1.86.93 2.95 2.5 2.95 1.55 0 2.48-1.1 2.48-2.9 0-1.92-.9-3-2.5-3m.01.8c.99 0 1.58.82 1.58 2.18 0 1.3-.61 2.11-1.58 2.11s-1.57-.8-1.57-2.14c0-1.33.6-2.14 1.57-2.14m8.56-.64h-.9v-1.51h-.87v1.5h-.75v.72h.75v4.16q.01.86 1.06.87c.23 0 .42-.02.71-.07v-.74a2 2 0 0 1-.42.04c-.38 0-.48-.1-.48-.49v-3.77h.9zm5.5 3.04c0-.84-.07-1.34-.23-1.75a2.3 2.3 0 0 0-2.22-1.45c-1.54 0-2.52 1.17-2.52 2.98 0 1.82.94 2.92 2.5 2.92 1.25 0 2.13-.71 2.35-1.91h-.89q-.37 1.09-1.43 1.1-.86-.01-1.33-.71c-.2-.32-.28-.63-.3-1.18zm-4.04-.71c.07-1.02.7-1.68 1.58-1.68s1.5.7 1.5 1.68zm6.04-4.48h-.88v7.6h.88zm6.12 5.2a5 5 0 0 0-.22-1.76 2.3 2.3 0 0 0-2.23-1.45c-1.53 0-2.52 1.17-2.52 2.98 0 1.82.95 2.92 2.5 2.92 1.26 0 2.13-.71 2.35-1.91h-.88q-.37 1.09-1.44 1.1c-.55 0-1.03-.25-1.32-.71-.21-.32-.28-.63-.3-1.18zm-4.03-.72c.07-1.02.69-1.68 1.57-1.68.9 0 1.51.7 1.51 1.68zm5.22-2.33v5.5h.88v-3.45c0-.8.58-1.44 1.29-1.44.65 0 1.02.4 1.02 1.1V170h.88v-3.45c0-.8.58-1.44 1.3-1.44.63 0 1.01.4 1.01 1.1V170h.88v-4.13c0-.98-.57-1.53-1.6-1.53-.73 0-1.17.22-1.68.84-.33-.59-.77-.84-1.49-.84-.73 0-1.22.27-1.69.94v-.78zm13.4 3.04c0-.84-.07-1.34-.23-1.75a2.3 2.3 0 0 0-2.22-1.45c-1.54 0-2.52 1.17-2.52 2.98 0 1.82.94 2.92 2.5 2.92 1.26 0 2.13-.71 2.35-1.91h-.88q-.38 1.09-1.44 1.1c-.56 0-1.03-.25-1.33-.71-.2-.32-.28-.63-.29-1.18zm-4.04-.71c.08-1.02.7-1.68 1.58-1.68s1.5.7 1.5 1.68zm7.06-2.33h-.9v-1.51h-.88v1.5h-.74v.72h.74v4.16q.02.86 1.06.87c.23 0 .42-.02.72-.07v-.74a2 2 0 0 1-.42.04c-.38 0-.49-.1-.49-.49v-3.77h.9zm.92 0v5.5h.88v-2.86c.01-1.32.56-1.9 1.77-1.88v-.89l-.34-.03c-.57 0-1 .34-1.5 1.16v-1zm7.09 0-1.52 4.28-1.41-4.28h-.93l1.85 5.52-.33.87c-.15.4-.34.54-.7.54-.15 0-.28-.02-.47-.06v.78q.26.14.59.14c.28 0 .59-.1.82-.26.27-.2.43-.43.6-.87l2.44-6.66zm2.44 4.4h-1.1v1.1h1.1z" aria-label="Runs entirely on your machine — no network, no telemetry." style="font-size:10.5px;fill:#8a8d96"/></svg>